<?xml version="1.0" encoding="utf-8"?>
<!-- Generator: Adobe Illustrator 28.0.0, SVG Export Plug-In . SVG Version: 6.00 Build 0)  -->
<svg version="1.1" id="Слой_1" xmlns="http://www.w3.org/2000/svg" xmlns:xlink="http://www.w3.org/1999/xlink" x="0px" y="0px"
	 viewBox="0 0 1024 1280" style="enable-background:new 0 0 1024 1280;" xml:space="preserve">
<style type="text/css">
	.st0{fill:#FFFFFF;}
	.st1{fill:#1B314F;}
	.st2{fill:#94A6C3;}
	.st3{fill:#FFD923;}
	.st4{fill:#D82122;}
</style>
<g>
	<path class="st0" d="M212,931.5h40v160h40v-200h-40C230,891.5,212,909.5,212,931.5z"/>
	<path class="st0" d="M332,971.5v120h40v-80C372,989.5,354,971.5,332,971.5z"/>
	<path class="st0" d="M492,971.5h-80v120h40v-80h40v40c0,22,18,40,40,40v-80C532,989.5,514,971.5,492,971.5z"/>
	<path class="st0" d="M772,971.5h-40v-40c0-22-18-40-40-40v160h-80v-40h40v-40h-40c-22,0-40,18-40,40v40c0,22,18,40,40,40h120v-80
		h40v40c0,22,18,40,40,40v-80C812,989.5,794,971.5,772,971.5z"/>
	<path class="st0" d="M332,891.5v40h40C372,909.5,354,891.5,332,891.5z"/>
</g>
<g>
	<path class="st1" d="M693.2,235.4c0,0,30.1,1.2,61.4,4.8c-70.4-55.3-137.2-71.6-191.3-71.6c-74.6,0-125.1,30.7-128.1,32.5
		l23.5-37.3c0,0-93.8-9-126.9,90.2c-8.4-21.1-16.2-51.7-16.2-51.7S266.7,245,289.6,316c-55.9-20.5-136-48.7-139-49.3
		c-4.2-0.6-5.4,1.2-5.4,1.2s-1.2,1.8,2.4,4.8c6.6,5.4,132.9,98.7,160.6,116.7c-6,21.7-6,31.9,0,42.1c8.4,13.8,9,21.1,7.8,31.3
		c-1.2,10.2-12,98.7-14.4,109.5c-2.4,10.8-27.7,49.3-26.5,60.8c1.2,11.4,16.8,60.2,30.7,65.6c10.2,3.6,35.5,11.4,52.3,11.4
		c6,0,11.4-1.2,13.8-3.6c10.2-9,13.2-10.8,20.5-10.8h1.8c3,0,6.6,0.6,10.8,0.6c9.6,0,22.3-1.8,31.3-10.2
		c13.2-13.2,36.1-31.3,43.3-39.7c9-11.4,13.8-27.1,11.4-42.7c-1.8-14.4,6-27.1,15-39.7c11.4-15,32.5-42.1,32.5-42.1
		C580.1,553,606,600.5,606,653.5c0,93.8-81.8,169.6-182.9,169.6c-15.6,0-30.7-1.8-45.7-5.4c46.3,16.2,85.4,21.7,117.3,21.7
		c68,0,104.1-24.7,104.1-24.7s-12.6,16.2-33.1,34.9h0.6C678.8,834,733.5,741.3,733.5,741.3s-4.2,30.1-9.6,50.5
		c149.8-112.5,124.5-253.3,123.9-258.1c1.2,1.8,16.2,19.9,24.1,29.5C896,315.4,693.2,235.4,693.2,235.4"/>
	<g>
		<path class="st0" d="M686,638.4c1.2-4.8,6.6-7.8,12.6-10.8c4.2-2.4,9.6-5.4,10.2-7.2c2.4-13.8,3.6-27.7,3.6-41.5
			c0-3-4.8-7.8-9-11.4c-4.8-4.8-9.6-9.6-10.2-14.4c-4.2-39.1-18.6-77-42.1-108.3c1.8,21.7,1.2,48.1-4.8,78.8
			c43.3,76.4,16.2,172.7-39.7,231C644.5,725.7,672.8,684.8,686,638.4z"/>
		<path class="st0" d="M469.4,604.2c-6.6-25.9-32.5-39.7-40.9-39.1c-9.6,1.2-22.9,3-27.1,6c7.8-12,18.6-18,29.5-21.1
			c9-25.9,28.3-78.8,32.5-82.4c2.4-1.8,8.4-3.6,18.6-6.6c6-1.2,14.4-3.6,15.6-4.8c2.4-3.6,26.5-61.4,28.3-65.6
			c-0.6-4.2-12.6-34.9-25.3-64.4C470,348.5,437,342.5,437,342.5s23.5-6.6,47.5-42.1c23.5-35.5,1.2-84.2,1.2-84.2
			S403.3,340.1,393,342.5c-10.2,2.4-17.4-10.2-17.4-10.2s-21.7,56.5-27.7,77s1.2,39.7,6.6,49.3c6,9.6,18.6,33.7,1.2,58.4
			c2.4-10.8-8.4-27.7-16.2-37.9c-3,26.5-10.8,89.6-13.2,99.9c-1.2,7.2-5.4,15-12.6,28.9c-3.6,7.2-10.8,19.9-12.6,25.9
			c2.4,10.8,11.4,36.7,17.4,44.5c8.4,3,20.5,6,30.7,7.8c4.8,0,10.8-2.4,19.3-10.2c15.6-14.4,25.9-22.3,28.9-37.9
			c3-15,1.8-38.5,9-45.1c6.6-6.6,21.1-9.6,32.5-6.6c-9,0-19.3,4.2-19.3,4.2s17.4-3,24.1,9.6c6.6,12.6,1.2,19.9-9.6,27.1
			c-9,6-35.5,33.7-44.5,45.7h5.4h2.4h3.6h6.6c7.2,0,12-1.2,14.4-3.6c6-6,13.8-12.6,21.1-19.3c7.2-6.6,17.4-15.6,19.9-18.6
			c4.8-7.2,7.8-16.2,6.6-25.9V604.2z M439.4,311.8l40.3-59.6c0,0,5.4,24.1-8.4,40.3C453.8,312.4,438.8,311.8,439.4,311.8z
			 M328.1,648.1c-7.8,0.6-10.8-9-9-14.4c1.8-4.8,21.7-39.7,21.7-39.7l-4.8,24.1c0,0,9.6-1.2,9.6,9.6
			C345.5,636,335.9,647.5,328.1,648.1z M391.2,470c-3.6,13.8-34.3,7.8-22.9-36.1c0,0,5.4,21.1,10.8,19.2
			c5.4-1.8,66.8-98.1,66.8-98.1s-7.8,25.3-13.2,37.9c21.1,4.2,27.1,28.9,15.6,42.1C437,447.7,408.1,465.8,391.2,470z"/>
		<path class="st0" d="M529,293.1c-4.2,6.6-8.4,12.6-12.6,17.4c9,22.3,32.5,80.6,32.5,83.6c0,3.6-11.4,33.1-12.6,34.3
			c-1.2,0.6-15,1.8-20.5,1.8c-6,14.4-12,28.3-13.2,30.1c-1.8,2.4-7.2,4.2-18.6,7.2c-6,1.8-15,4.2-16.2,5.4
			c-3,3.6-19.3,46.3-30.1,76.4c14.4-2.4,27.1,0.6,30.1,1.8c23.5-44.5,42.1-68.6,46.9-68.6c4.8-0.6,62,7.8,84.2-45.7
			c21.7-52.9-9.6-98.1-10.8-99.9c1.2,0.6,49.3,22.9,61.4,95c27.1,34.3,44.5,75.8,49.3,119.7c0,3,4.8,7.2,7.8,10.8
			c5.4,5.4,10.8,10.8,10.8,16.2c0,14.4-1.2,28.9-3.6,42.7c-1.2,4.8-7.2,8.4-13.2,11.4c-3.6,2.4-9,5.4-9.6,7.2
			c-13.2,47.5-43.3,89.6-82.4,119.7c83-39.7,140.2-124.5,140.2-222C748.6,411,652.3,306.4,529,293.1z"/>
		<path class="st0" d="M434.5,609c0-8.4-11.4-10.2-16.2-9c-4.8,1.2-6,9-6.6,13.2c-0.6,4.2,0,17.4-5.4,25.3
			c1.2-1.2,9.6-10.2,13.8-14.4C426.1,618.6,434.5,616.8,434.5,609z"/>
		<path class="st0" d="M337.1,370.1c4.2-7.8,0.6-13.2-3-16.2c-0.6-0.6-1.2-1.2-1.2-1.2c-7.2-3.6-52.3-20.5-96.9-36.1
			c39.1,25.9,82.4,51.1,89.6,54.7C331.1,373.8,334.7,374.4,337.1,370.1z"/>
	</g>
	<g>
		<path class="st2" d="M507.6,342.6c-2.2-5.4-4.6-10.9-6.9-16.4c-29.9,21.7-62,16.5-63.7,16.3C438.7,342.9,470.5,352.9,507.6,342.6z
			"/>
		<path class="st2" d="M570.2,301.2c-13.3-3.8-27.1-6.5-41.2-8.1c-4.2,6.6-8.4,12.6-12.6,17.4c2.5,6.2,6.2,15.2,10.1,25.1
			C541.4,328.6,556.5,317.7,570.2,301.2z"/>
		<path class="st2" d="M469.4,604.2c-6.6-25.9-32.5-39.7-40.9-39.1c-9.6,1.2-22.9,3-27.1,6c7.8-12,18.6-18,29.5-21.1
			c3.1-8.8,7.3-20.8,11.8-32.9c-10.2,5.4-46.6,24.8-49.7,26.9c-3.6,2.4-16.2,27.7-25.9,54.1c-5.4-16.8-17.4-27.1-18-27.7
			c0.6,3,13.2,52.9,9,68c-4.2,15.6-30.7,29.5-30.7,29.5l39.8,8.8c0.4-0.3,0.7-0.7,1.1-1c15.6-14.4,25.9-22.3,28.9-37.9
			c3-15,1.8-38.5,9-45.1c6.6-6.6,21.1-9.6,32.5-6.6c-3.3,0-6.7,0.5-9.7,1.3c10.2,0.1,23.9,4.1,23.6,24.6c0,15.6-17.4,16.8-34.9,31.3
			c-3.5,2.9-7.4,6.3-11.2,9.8c0,0,0,0,0,0c-7,7.5-13.4,14.8-17,19.6h18c7.2,0,12-1.2,14.4-3.6c6-6,13.8-12.6,21.1-19.3
			c7.2-6.6,17.4-15.6,19.9-18.6c4.8-7.2,7.8-16.3,6.6-25.9V604.2z"/>
		<path class="st2" d="M519.4,467c-21.1,0-49.3,13.8-49.3,13.8l-27.7,68c12.3-1.1,22.6,1.4,25.2,2.4c23.5-44.5,42.1-68.6,46.9-68.6
			c4.8-0.6,62,7.8,84.2-45.7c21.7-52.9-9.6-98.1-10.8-99.9C613.2,420.1,557.3,466.4,519.4,467z"/>
		<path class="st2" d="M686,638.4c1.2-4.8,6.6-7.8,12.6-10.8c4.2-2.4,9.6-5.4,10.2-7.2c2.4-13.8,3.6-27.7,3.6-41.5
			c0-3-4.8-7.8-9-11.4c-4.8-4.8-9.6-9.6-10.2-14.4c-4.2-39.1-18.6-77-42.1-108.3c1.8,21.6,1.2,48.1-4.8,78.8
			c43.3,76.4,16.2,172.7-39.7,231C644.5,725.7,672.8,684.8,686,638.4z"/>
		<path class="st2" d="M742,525.3c-21.4-121.5-144.4-184.1-153.8-188.2c3.8,1.9,47.6,24,60.4,90.7c29.9,34.9,48.6,78.5,53.7,124.6
			c0,3,4.2,7.2,8.4,10.8c5.4,5.4,10.8,10.8,10.8,16.2c0,14.4-1.2,28.9-3.6,42.7c-1.2,4.8-7.2,7.8-13.2,11.4c-3.6,2.4-9,5.4-9.6,7.2
			c-12.2,43.4-37.9,82.2-72.2,111.6c-2.8,2.4-5.6,4.7-8.4,6.9c64.7-36.7,110.5-92.5,125.3-156C745.6,578.3,746.6,552.1,742,525.3z"
			/>
	</g>
	<path class="st3" d="M396,458.6l31.3-53.5c0,0,18,9,9,23.5C424.9,445.3,396,458.6,396,458.6"/>
	<g>
		<path class="st4" d="M752.2,452c3,5.4,77,142-0.6,291.2c12-12,22.3-24.7,31.3-36.7c51.7-72.2,44.5-171.4-15-237.6
			C763,463.4,757.6,457.4,752.2,452z"/>
		<path class="st4" d="M855.1,514.5c-1.2-77-27.1-143.2-77-196.1c-0.6-0.6-0.6-0.6-1.2-1.2c-43.9-46.3-108.3-68-172.1-59
			c-24.1,3-48.1,7.8-66.8,13.8c-3,0.6-6,1.2-9,2.4h1.2c4.8-0.6,92.6-4.8,174.5,49.3C789.5,379.8,828,441.7,855.1,514.5z"/>
		<path class="st4" d="M685.4,216.7c-39.7-19.9-81.2-30.1-122.7-30.7c-15.6,0-30.1,1.2-43.3,3.6c-46.9,8.4-85.4,42.1-98.7,87.2
			c0,0,9.6-15,32.5-30.7c8.4-11.4,21.7-29.5,34.3-44.5c3.6,7.8,7.8,17.4,9,22.3C538,208.3,595.8,199.9,685.4,216.7z"/>
		<path class="st4" d="M308.2,243.2c-1.2,4.8-24.7,86.6,45.7,89C313,307.6,308.2,243.8,308.2,243.2z"/>
		<path class="st4" d="M423.1,184.9c-4.2,1.8-95,31.3-43.3,110.1C379.8,294.9,369,217.3,423.1,184.9z"/>
	</g>
</g>
</svg>
